#!OML:ASF H:\Terrain\Patient Classification 1\Animal1\Tuesday\Animal1.ASF
:FULLY-SPECIFIED
:DEGREES
1993
root 6.78365 16.4295 -14.989 -355.481 13.0936 2.42168
lowerback -1.81837 -0.683941 0.911092
upperback 2.8031 -0.984024 1.15612
thorax 3.90897 -0.479905 0.629104
lowerneck -6.53872 3.1663 -2.20992
upperneck 12.5409 2.78905 14.107
head 4.57099 2.13514 4.91972
rclavicle -4.67144e-015 2.8625e-014
rhumerus -21.3824 -5.96636 -70.9601
rradius 17.1625
rwrist -19.4396
rhand -26.9448 34.3388
rfingers 7.12502
rthumb -0.366762 4.35937
lclavicle -4.67144e-015 2.8625e-014
lhumerus -22.6221 18.7138 60.322
lradius 19.5066
lwrist -34.6776
lhand 5.39254 40.7396
lfingers 7.12502
lthumb 30.7443 68.1895
rfemur -14.0628 10.4291 20.0415
rtibia 24.7755
rfoot -19.9189 -35.8504
rtoes 30.5964
lfemur -11.2696 -14.9231 -18.187
ltibia 13.6321
lfoot -9.12981 16.2797
ltoes 1.63203
1994
root 6.7878 16.431 -14.9948 -355.438 12.9667 2.30811
lowerback -1.80577 -0.722014 1.00218
upperback 2.78522 -1.03772 1.15523
thorax 3.88198 -0.504032 0.574658
lowerneck -6.13422 3.04656 -2.35018
upperneck 12.0963 2.72173 13.8738
head 4.37275 2.05173 4.84273
rclavicle 2.70347e-014 1.59028e-015
rhumerus -21.3332 -5.73102 -71.1145
rradius 17.1355
rwrist -19.5434
rhand -27.0388 34.738
rfingers 7.12502
rthumb -0.457571 4.75877
lclavicle 2.70347e-014 1.59028e-015
lhumerus -23.3941 17.5723 61.1359
lradius 19.9236
lwrist -33.1451
lhand 5.34754 40.8404
lfingers 7.12502
lthumb 30.7014 68.2983
rfemur -14.1721 10.4849 20.1253
rtibia 24.7644
rfoot -19.8514 -35.859
rtoes 30.2042
lfemur -11.3465 -14.7961 -18.0781
ltibia 13.6334
lfoot -8.93258 16.3933
ltoes 0.0596817
1995
root 6.7874 16.429 -15.004 -355.385 12.8211 2.01479
lowerback -1.77226 -0.71398 1.27552
upperback 2.75249 -1.03573 1.15447
thorax 3.82443 -0.495304 0.421554
lowerneck -6.05837 2.92918 -2.35651
upperneck 11.9795 2.59901 13.6638
head 4.3382 1.97237 4.76672
rclavicle 3.33958e-014 1.74931e-014
rhumerus -21.3339 -5.62765 -71.2946
rradius 17.1632
rwrist -19.4413
rhand -27.2644 34.7885
rfingers 7.12502
rthumb -0.675478 4.8098
lclavicle 3.33958e-014 1.74931e-014
lhumerus -23.9147 16.2755 61.9612
lradius 20.2124
lwrist -31.7306
lhand 5.12772 40.6711
lfingers 7.12502
lthumb 30.4918 68.1681
rfemur -14.3185 10.6141 20.4001
rtibia 24.6535
rfoot -19.7318 -36.0041
rtoes 29.6238
lfemur -11.6248 -14.7076 -17.7204
ltibia 13.8551
lfoot -8.95522 16.4954
ltoes -0.567781
1996
root 6.78503 16.4276 -15.0125 -355.356 12.6539 1.80347
lowerback -1.68998 -0.708062 1.44742
upperback 2.73671 -1.03115 1.13475
thorax 3.75826 -0.488133 0.306414
lowerneck -6.27597 2.87994 -2.36171
upperneck 12.1669 2.51927 13.5779
head 4.44064 1.94175 4.74722
rclavicle 9.74045e-015 1.51076e-014
rhumerus -21.4363 -5.35711 -71.477
rradius 17.3566
rwrist -19.4551
rhand -27.0031 34.4865
rfingers 7.12502
rthumb -0.423073 4.50722
lclavicle 9.74045e-015 1.51076e-014
lhumerus -24.3199 15.7532 62.5227
lradius 20.3162
lwrist -31.3233
lhand 5.36288 40.4392
lfingers 7.12502
lthumb 30.716 67.8944
rfemur -14.3906 10.8019 20.5889
rtibia 24.4769
rfoot -19.7677 -36.0796
rtoes 29.8415
lfemur -11.9284 -14.638 -17.449
ltibia 14.2464
lfoot -9.19199 16.5601
ltoes -0.100944
1997
root 6.78323 16.4275 -15.0195 -355.363 12.5436 1.78775
lowerback -1.61621 -0.742187 1.38324
upperback 2.76639 -1.07274 1.1189
thorax 3.74784 -0.510424 0.324829
lowerneck -6.3729 2.81678 -2.66352
upperneck 12.2396 2.44588 13.6826
head 4.47794 1.90373 4.83207
rclavicle 1.94809e-014 -1.90833e-014
rhumerus -21.5671 -4.6607 -71.6794
rradius 17.7488
rwrist -19.8036
rhand -26.5938 33.8485
rfingers 7.12502
rthumb -0.0277954 3.86878
lclavicle 1.94809e-014 -1.90833e-014
lhumerus -24.7949 14.9944 63.1088
lradius 20.5348
lwrist -30.8394
lhand 5.71146 40.681
lfingers 7.12502
lthumb 31.0483 68.0732
rfemur -14.3466 10.9021 20.5912
rtibia 24.281
rfoot -19.6864 -35.9446
rtoes 30.5744
lfemur -12.1721 -14.6188 -17.4194
ltibia 14.7065
lfoot -9.57462 16.5569
ltoes 0.399759
1998
root 6.78234 16.4257 -15.0249 -355.424 12.4832 1.64553
lowerback -1.57709 -0.774541 1.50029
upperback 2.81093 -1.11906 1.09725
thorax 3.76914 -0.529504 0.235104
lowerneck -5.98077 2.66623 -2.8501
upperneck 11.791 2.31993 13.6014
head 4.28312 1.8005 4.81063
rclavicle -1.0138e-014 2.14687e-014
rhumerus -21.566 -4.30696 -71.8619
rradius 17.8492
rwrist -19.8928
rhand -26.2654 33.4983
rfingers 7.12502
rthumb 0.28943 3.5188
lclavicle -1.0138e-014 2.14687e-014
lhumerus -25.1804 14.1872 63.5635
lradius 20.6112
lwrist -30.4241
lhand 5.68524 40.3309
lfingers 7.12502
lthumb 31.0233 67.728
rfemur -14.2744 10.9083 20.7617
rtibia 24.1373
rfoot -19.0619 -36.0235
rtoes 30.062
lfemur -12.3163 -14.7657 -17.2511
ltibia 15.0347
lfoot -9.88577 16.6802
ltoes 0.854669
1999
root 6.78126 16.4248 -15.0291 -355.443 12.3956 1.45734
lowerback -1.571 -0.807131 1.66562
upperback 2.84723 -1.16819 1.0809
thorax 3.79963 -0.548549 0.123287
lowerneck -5.92333 2.52622 -2.92322
upperneck 11.6887 2.1706 13.3904
head 4.25708 1.70667 4.74566
rclavicle 4.27387e-015 3.97569e-015
rhumerus -21.4307 -4.39044 -71.9609
rradius 17.7009
rwrist -19.5513
rhand -26.0896 33.3034
rfingers 7.12502
rthumb 0.459248 3.32413
lclavicle 4.27387e-015 3.97569e-015
lhumerus -25.4207 14.0186 63.8107
lradius 20.5255
lwrist -30.4803
lhand 5.83473 40.0477
lfingers 7.12502
lthumb 31.1658 67.4174
rfemur -14.2902 10.8621 20.9717
rtibia 24.056
rfoot -18.3879 -36.133
rtoes 29.1272
lfemur -12.4298 -14.8452 -17.023
ltibia 15.2274
lfoot -9.90335 16.8697
ltoes 0.572126
2000
root 6.77859 16.4256 -15.0327 -355.407 12.2267 1.4609
lowerback -1.5793 -0.795785 1.57363
upperback 2.88874 -1.14915 1.02888
thorax 3.84809 -0.54052 0.121708
lowerneck -6.05637 2.38704 -3.01508
upperneck 11.8957 1.98854 13.2148
head 4.35904 1.61442 4.70557
rclavicle -2.08724e-015 -1.82882e-014
rhumerus -21.2583 -4.5797 -72.036
rradius 17.4349
rwrist -19.241
rhand -26.315 33.0029
rfingers 7.12502
rthumb 0.241515 3.02332
lclavicle -2.08724e-015 -1.82882e-014
lhumerus -25.5614 13.7703 64.1204
lradius 20.5046
lwrist -30.1887
lhand 5.73737 40.3001
lfingers 7.12502
lthumb 31.073 67.6876
rfemur -14.3359 10.8191 20.9537
rtibia 23.9713
rfoot -18.1433 -35.944
rtoes 29.0716
lfemur -12.5392 -14.7795 -17.009
ltibia 15.4239
lfoot -10.0457 16.9269
ltoes 1.06836
2001
root 6.77585 16.4256 -15.0363 -355.418 12.0031 1.495
lowerback -1.53756 -0.68576 1.48911
upperback 2.92834 -0.994917 0.905005
thorax 3.86582 -0.464074 0.0492664
lowerneck -5.81994 2.17502 -2.89176
upperneck 11.774 1.72753 12.9715
head 4.30882 1.46688 4.5882
rclavicle 8.64713e-015 -3.97569e-015
rhumerus -21.2397 -4.79141 -72.1566
rradius 17.1584
rwrist -19.2043
rhand -26.5953 33.0179
rfingers 7.12502
rthumb -0.0291937 3.03812
lclavicle 8.64713e-015 -3.97569e-015
lhumerus -25.5029 13.2928 64.3874
lradius 20.3719
lwrist -29.6114
lhand 5.47756 40.3082
lfingers 7.12502
lthumb 30.8254 67.7429
rfemur -14.3265 10.9029 20.9096
rtibia 23.895
rfoot -17.8177 -35.8744
rtoes 28.5307
lfemur -12.5736 -14.784 -17.0434
ltibia 15.5752
lfoot -10.2885 17.0738
ltoes 2.27212
2002
root 6.77377 16.425 -15.0418 -355.422 11.8421 1.40004
lowerback -1.48619 -0.589914 1.58692
upperback 2.93719 -0.866543 0.823494
thorax 3.84448 -0.396066 -0.0826665
lowerneck -5.66638 1.99523 -2.86177
upperneck 11.6174 1.51779 12.7768
head 4.25532 1.34477 4.50556
rclavicle -1.82882e-014 4.77083e-015
rhumerus -21.3029 -4.73975 -72.2795
rradius 17.0654
rwrist -19.2996
rhand -26.8325 33.2823
rfingers 7.12502
rthumb -0.258268 3.30267
lclavicle -1.82882e-014 4.77083e-015
lhumerus -25.4938 13.1137 64.4915
lradius 20.2628
lwrist -29.2924
lhand 5.53313 40.2921
lfingers 7.12502
lthumb 30.8784 67.7167
rfemur -14.3516 11.0797 20.993
rtibia 23.8389
rfoot -17.8334 -35.8272
rtoes 28.4537
lfemur -12.6178 -14.8185 -16.9294
ltibia 15.6211
lfoot -10.2092 17.3562
ltoes 2.25078
2003
root 6.77133 16.4261 -15.0473 -355.409 11.7565 1.28855
lowerback -1.48265 -0.580886 1.65443
upperback 2.95234 -0.856107 0.798209
thorax 3.85706 -0.3883 -0.146015
lowerneck -5.67469 1.88571 -3.04953
upperneck 11.5811 1.40125 12.687
head 4.25385 1.27354 4.50289
rclavicle -2.19657e-014 2.22639e-014
rhumerus -21.291 -4.46614 -72.4009
rradius 17.1039
rwrist -19.4475
rhand -26.9827 33.1638
rfingers 7.12502
rthumb -0.403336 3.18444
lclavicle -2.19657e-014 2.22639e-014
lhumerus -25.675 13.1199 64.5017
lradius 20.3891
lwrist -28.9952
lhand 5.51219 40.5243
lfingers 7.12502
lthumb 30.8584 67.9527
rfemur -14.3997 11.209 21.0867
rtibia 23.7836
rfoot -18.3143 -35.6674
rtoes 29.5389
lfemur -12.6641 -14.8037 -16.7895
ltibia 15.6157
lfoot -10.1179 17.466
ltoes 2.38816
2004
root 6.76962 16.4282 -15.0508 -355.411 11.7041 1.25251
lowerback -1.51303 -0.614193 1.59026
upperback 3.00379 -0.899352 0.781987
thorax 3.92766 -0.410778 -0.12948
lowerneck -5.65128 1.78312 -3.08126
upperneck 11.5463 1.30389 12.3624
head 4.2501 1.20445 4.40023
rclavicle 2.15681e-014 9.93923e-015
rhumerus -21.1855 -4.09934 -72.5151
rradius 17.1082
rwrist -19.6052
rhand -26.7171 32.9904
rfingers 7.12502
rthumb -0.146894 3.0107
lclavicle 2.15681e-014 9.93923e-015
lhumerus -25.8454 13.3382 64.4172
lradius 20.482
lwrist -28.783
lhand 5.43422 40.4513
lfingers 7.12502
lthumb 30.7841 67.8937
rfemur -14.4249 11.295 21.1108
rtibia 23.7635
rfoot -18.4255 -35.7317
rtoes 29.7924
lfemur -12.6506 -14.7603 -16.7475
ltibia 15.5631
lfoot -10.0614 17.4514
ltoes 1.79176
2005
root 6.76699 16.427 -15.0545 -355.387 11.6631 1.30196
lowerback -1.52543 -0.659861 1.39963
upperback 3.03681 -0.95523 0.804336
thorax 3.97141 -0.444393 -0.00283022
lowerneck -5.57477 1.67562 -3.03556
upperneck 11.5546 1.21547 11.7921
head 4.25232 1.12924 4.20796
rclavicle -2.38542e-015 -1.98785e-015
rhumerus -21.0368 -3.88724 -72.4812
rradius 16.9726
rwrist -19.4594
rhand -26.2092 32.9229
rfingers 7.12502
rthumb 0.343653 2.94348
lclavicle -2.38542e-015 -1.98785e-015
lhumerus -26.0216 13.8362 64.3029
lradius 20.4671
lwrist -28.6899
lhand 5.49787 40.3394
lfingers 7.12502
lthumb 30.8447 67.7703
rfemur -14.4674 11.364 21.0495
rtibia 23.773
rfoot -18.2696 -35.8295
rtoes 29.1385
lfemur -12.6263 -14.725 -16.7973
ltibia 15.4769
lfoot -9.91729 17.5278
ltoes 0.0348811
